<svg id="Layer_1" data-name="Layer 1" xmlns="http://www.w3.org/2000/svg" viewBox="0 0 1298.76 455.13"><defs><style>.cls-1{fill:#9c4825;}.cls-2{fill:#d82f3c;}.cls-15,.cls-3{fill:#fff;}.cls-4{fill:#a30e1a;}.cls-10,.cls-12,.cls-17,.cls-21,.cls-24,.cls-27,.cls-29,.cls-30,.cls-32,.cls-34,.cls-35,.cls-5,.cls-6,.cls-8{fill:none;}.cls-5{stroke:#a30e1a;}.cls-10,.cls-12,.cls-17,.cls-21,.cls-24,.cls-27,.cls-30,.cls-32,.cls-35,.cls-5,.cls-6,.cls-8{stroke-linecap:square;stroke-linejoin:bevel;}.cls-10,.cls-12,.cls-17,.cls-21,.cls-24,.cls-27,.cls-30,.cls-32,.cls-34,.cls-35,.cls-5,.cls-6,.cls-8{stroke-width:0.75px;}.cls-6{stroke:#fff;}.cls-7{fill:#518f60;}.cls-8{stroke:#2e6b3d;}.cls-9{fill:#7db089;}.cls-10{stroke:#732b0c;}.cls-11{fill:#e38523;}.cls-12{stroke:#bd6509;}.cls-13{fill:#544f56;}.cls-14{fill:#c8c3ca;}.cls-15{opacity:0.4;}.cls-16{fill:#2c2f37;}.cls-17,.cls-29{stroke:#2c2f37;}.cls-18{fill:#780e0e;}.cls-19{fill:#662b2b;}.cls-20{fill:#e48a68;}.cls-21{stroke:#bf603b;}.cls-22{fill:#bf423b;}.cls-23{fill:#3342ac;}.cls-24{stroke:#122087;}.cls-25{fill:#eba526;}.cls-26{fill:#62a4fb;}.cls-27{stroke:#3272c7;}.cls-28{fill:#eba523;}.cls-29{stroke-linecap:round;stroke-linejoin:round;stroke-width:2px;}.cls-30{stroke:#c8c3ca;}.cls-31{fill:#d06828;}.cls-32{stroke:#a34409;}.cls-33{fill:#d02e28;}.cls-34,.cls-35{stroke:#5b5e66;}.cls-34{stroke-miterlimit:10;}.cls-36{fill:#72c8f7;}</style></defs><polygon class="cls-1" points="1024.08 422.57 1026.38 436.9 1034.13 436.9 1035.82 421.76 1024.08 422.57"/><path class="cls-2" d="M1128.59,462.54a15.69,15.69,0,0,0-1.79-9.38c-.71-1.31-2-2.66-3.43-2.35-1.1.23-1.77,1.31-2.63,2a4.79,4.79,0,0,1-5.75.19c-.77-.56-1.41-1.39-2.34-1.58a3.12,3.12,0,0,0-2.94,1.53,22.24,22.24,0,0,1-2,2.88,6,6,0,0,1-4.28,1.49,23.86,23.86,0,0,1-4.58-.72c-3.28-.69-6.76-1-9.94.07s-6,3.83-6.24,7.17A54.34,54.34,0,0,0,1111,464,27.66,27.66,0,0,0,1128.59,462.54Z" transform="translate(-87.41 -18.32)"/><path class="cls-3" d="M1131.69,465.48c-5.75,3.43-15.53,2.93-21.74.57-8.7,3-21.3,3.47-29.38-.25l2.25-4.29a44.27,44.27,0,0,0,27.13-.46,28,28,0,0,0,19.37,0Z" transform="translate(-87.41 -18.32)"/><path class="cls-4" d="M1110.78,448.07c1.25,1.13,2.88,3,2.15,4.49a9,9,0,0,1-11.47,4.6A32.29,32.29,0,0,1,1110.78,448.07Z" transform="translate(-87.41 -18.32)"/><path class="cls-5" d="M1119.92,462.23a8.69,8.69,0,0,1,7.46-5.8" transform="translate(-87.41 -18.32)"/><path class="cls-6" d="M1107.18,450.38A10,10,0,0,1,1112,454" transform="translate(-87.41 -18.32)"/><path class="cls-6" d="M1103.78,453.68a9.5,9.5,0,0,1,4.81,3.09" transform="translate(-87.41 -18.32)"/><polygon class="cls-1" points="1081.16 420.53 1084.53 436.9 1092.28 436.9 1094.15 420.19 1081.16 420.53"/><path class="cls-2" d="M1186.74,462.54a15.69,15.69,0,0,0-1.79-9.38c-.71-1.31-2-2.66-3.43-2.35-1.1.23-1.77,1.31-2.63,2a4.79,4.79,0,0,1-5.75.19c-.77-.56-1.41-1.39-2.34-1.58a3.12,3.12,0,0,0-2.94,1.53,22.24,22.24,0,0,1-2,2.88,6,6,0,0,1-4.28,1.49,23.86,23.86,0,0,1-4.58-.72c-3.28-.69-6.76-1-9.94.07s-6,3.83-6.24,7.17a54.34,54.34,0,0,0,28.33.11A27.66,27.66,0,0,0,1186.74,462.54Z" transform="translate(-87.41 -18.32)"/><path class="cls-3" d="M1189.84,465.48c-5.75,3.43-15.53,2.93-21.74.57-8.7,3-21.3,3.47-29.38-.25l2.25-4.29a44.27,44.27,0,0,0,27.13-.46,28,28,0,0,0,19.37,0Z" transform="translate(-87.41 -18.32)"/><path class="cls-4" d="M1168.93,448.07c1.25,1.13,2.88,3,2.15,4.49a9,9,0,0,1-11.47,4.6A32.29,32.29,0,0,1,1168.93,448.07Z" transform="translate(-87.41 -18.32)"/><path class="cls-5" d="M1178.07,462.23a8.69,8.69,0,0,1,7.46-5.8" transform="translate(-87.41 -18.32)"/><path class="cls-6" d="M1165.33,450.38a10,10,0,0,1,4.83,3.58" transform="translate(-87.41 -18.32)"/><path class="cls-6" d="M1161.93,453.68a9.5,9.5,0,0,1,4.81,3.09" transform="translate(-87.41 -18.32)"/><path class="cls-7" d="M1185.92,442.33h-23.29c-5.74-18.8-17-57.37-24.08-85.27-2.49-9.74-4.47-18.18-5.55-24-.31-2.93-.63-6.25-1-9.86-2.81-30.49-6.32-81.51-5.92-93.28l41.8-3.91c12.25,22.84,6,88.39,0,106C1180.17,353.75,1187.81,419.87,1185.92,442.33Z" transform="translate(-87.41 -18.32)"/><path class="cls-7" d="M1126.09,332.61c3.68,21.86,5,85,2.61,109.72h-24.93c-2.13-15-9.27-57.66-13.18-92.67-1-8.7-1.74-16.92-2.19-24.14.72-3.66,1.64-8.84,2.7-15,4.65-26.63,12-71.16,17.49-87.07l40.13,11.23C1147.44,253,1138,291.5,1126.09,332.61Z" transform="translate(-87.41 -18.32)"/><path class="cls-8" d="M1131.87,316.16a611.56,611.56,0,0,1-5.69-83.68" transform="translate(-87.41 -18.32)"/><path class="cls-8" d="M1118.33,231.87a205.4,205.4,0,0,0,.9,32.43,61.24,61.24,0,0,0,19.64,8.22" transform="translate(-87.41 -18.32)"/><path class="cls-8" d="M1148.35,233.52a29.3,29.3,0,0,0,17.39,24.54" transform="translate(-87.41 -18.32)"/><path class="cls-8" d="M1181.76,439.32c.27-33.77-5.43-67.42-15-99.8h-6l5-8.85-8.7-.86,7.44-6a165.85,165.85,0,0,0,4.75-62.4" transform="translate(-87.41 -18.32)"/><path class="cls-8" d="M1126.18,439.32c1.5-15.9.29-82.33-2.22-99.95l-5.4-1.8,4.5-4.66-5-5.06,5.9-2.69c2.87-8.82,5.06-17.63,5.06-17.63" transform="translate(-87.41 -18.32)"/><path class="cls-9" d="M1152.45,353.63a73.55,73.55,0,0,1-13.9,3.43c-2.49-9.74-4.47-18.18-5.55-24-.31-2.93-.63-6.25-1-9.86a37,37,0,0,1,15.08-1.23c-.48,3.29-1.11,7.19-1.59,10.49A53.54,53.54,0,0,1,1152.45,353.63Z" transform="translate(-87.41 -18.32)"/><path class="cls-9" d="M1104.17,348.88a50.15,50.15,0,0,1-13.58.78c-1-8.7-1.74-16.92-2.19-24.14.72-3.66,1.64-8.84,2.7-15a20.53,20.53,0,0,1,12.42,4.1,42.46,42.46,0,0,1-5.6,11.6A76.32,76.32,0,0,1,1104.17,348.88Z" transform="translate(-87.41 -18.32)"/><path class="cls-8" d="M1132.62,333a55.26,55.26,0,0,0,8.53-.3" transform="translate(-87.41 -18.32)"/><path class="cls-8" d="M1087.93,325.32a37.38,37.38,0,0,0,8.36,1" transform="translate(-87.41 -18.32)"/><path class="cls-1" d="M1181.85,96.35A153.36,153.36,0,0,0,1174,79.77a16.67,16.67,0,0,0-1.84-2.82c-.34-.39-.83-.77-1.31-.58a.92.92,0,0,0-.51.83,2.7,2.7,0,0,0,.23,1l2.45,6.65a2.93,2.93,0,0,0-1-.89,1.53,1.53,0,0,0-2,2.13,2.29,2.29,0,0,0-1.31-1.21,1.56,1.56,0,0,0-1.69.93,2.23,2.23,0,0,0,.23,2,31.41,31.41,0,0,0-5.66-6,2.23,2.23,0,0,0-.89-.46.83.83,0,0,0-.89.33,1.23,1.23,0,0,0,.15,1.15,29.41,29.41,0,0,0,5.78,7.87,10.92,10.92,0,0,0-1.6,1.86,3.61,3.61,0,0,0-.66,2.31,5.46,5.46,0,0,0,2.08,3.19c2.33,2.2,6.09,2.39,9.29,2.6A51.87,51.87,0,0,0,1181.85,96.35Z" transform="translate(-87.41 -18.32)"/><path class="cls-10" d="M1165.07,91.26a19.65,19.65,0,0,1,2.28-2.37,1.53,1.53,0,0,1,1.16-.52,1,1,0,0,1,.69.58,2.16,2.16,0,0,1,.16.91,6.37,6.37,0,0,1-.81,2.88,19.3,19.3,0,0,1-1.67,2.52" transform="translate(-87.41 -18.32)"/><path class="cls-10" d="M1169.17,95.7a2.77,2.77,0,0,0-.81-2.63,9,9,0,0,1,5.21.22" transform="translate(-87.41 -18.32)"/><path class="cls-10" d="M1173,84.76a13.17,13.17,0,0,1,1.9,5.2,2,2,0,0,1,0,.78.77.77,0,0,1-1.3.44,2.5,2.5,0,0,1-.56-.69c-1-1.53-2-3-2.93-4.58a17.65,17.65,0,0,1,2,5.16,2.11,2.11,0,0,1,0,.83.78.78,0,0,1-.53.6,1,1,0,0,1-.83-.25,3.91,3.91,0,0,1-1.3-1.68" transform="translate(-87.41 -18.32)"/><path class="cls-11" d="M1159.94,152.77c6.1-6.88,22.69-16,30.52-19.27s20.73,0,22.37,4.11-34.79,37-45.39,37.83S1156.19,157,1159.94,152.77Z" transform="translate(-87.41 -18.32)"/><path class="cls-11" d="M1172.18,102.5c-.92-2.62,6.36-9.2,11.1-7.24s35.59,30.77,29.55,42.35-20.08-1.35-22.37-4.11S1173.11,105.18,1172.18,102.5Z" transform="translate(-87.41 -18.32)"/><path class="cls-12" d="M1200.31,134.65a12.94,12.94,0,0,0-10-1.11,15.35,15.35,0,0,1,6.7,4.69" transform="translate(-87.41 -18.32)"/><path class="cls-1" d="M1046.8,122.45l-7.56,5.11c-4.29-4.29-8.5-8.64-12.35-13.33-.57-.71-1.15-1.42-1.66-2.18-.27-.4-.53-1-.25-1.35a.88.88,0,0,1,1-.28,2.3,2.3,0,0,1,.91.57l5.27,4.4c-2-2.52-4-5.08-6-7.6a2.46,2.46,0,0,1-.61-1.13.86.86,0,0,1,.59-1,1.29,1.29,0,0,1,1,.48,98.73,98.73,0,0,1,7,7.32c-1.92-3-3.83-6-5.75-9a2.2,2.2,0,0,1-.37-.79.69.69,0,0,1,1-.8,2.42,2.42,0,0,1,.62.53q3.75,4,7.15,8.32c-1.69-2.35-3.27-4.88-4.74-7.37a2.36,2.36,0,0,1-.36-.83.8.8,0,0,1,.31-.8.79.79,0,0,1,.81,0,2.38,2.38,0,0,1,.62.57C1038.55,109.21,1043.53,115.26,1046.8,122.45Z" transform="translate(-87.41 -18.32)"/><path class="cls-13" d="M1031.54,118.32l-3.18-26.63a1.32,1.32,0,0,1,1.32-1.5h12.78a1.75,1.75,0,0,1,1.68,1.5l3.18,26.63a1.31,1.31,0,0,1-1.32,1.5h-12.78A1.74,1.74,0,0,1,1031.54,118.32Z" transform="translate(-87.41 -18.32)"/><path class="cls-14" d="M1029.86,91.7l3.18,26.62a1.17,1.17,0,0,0,1.12,1h12.78a.87.87,0,0,0,.88-1l-3.18-26.62a1.15,1.15,0,0,0-1.12-1h-12.78a.86.86,0,0,0-.88.8Z" transform="translate(-87.41 -18.32)"/><path class="cls-15" d="M1029.86,91.7l1.22,10.2q7.22,8.76,14.58,17.42h1.28a.87.87,0,0,0,.88-1l-1.52-12.74q-8-7.23-16.44-14.08Z" transform="translate(-87.41 -18.32)"/><path class="cls-16" d="M1032.54,118.32l-3.18-26.63a1.32,1.32,0,0,1,1.32-1.5h12.78a1.75,1.75,0,0,1,1.68,1.5l3.18,26.63a1.31,1.31,0,0,1-1.32,1.5h-12.78A1.74,1.74,0,0,1,1032.54,118.32Zm-1.74-27.13a.44.44,0,0,0-.44.5l3.18,26.63a.6.6,0,0,0,.56.5h12.78a.44.44,0,0,0,.44-.5l-3.18-26.63a.59.59,0,0,0-.56-.5Z" transform="translate(-87.41 -18.32)"/><path class="cls-16" d="M1034.5,92.78h5.76a1,1,0,0,0,1-1.15l-.11-.94h-8.08l.12.94A1.33,1.33,0,0,0,1034.5,92.78Z" transform="translate(-87.41 -18.32)"/><path class="cls-1" d="M1047.26,124.24a64.78,64.78,0,0,0,2.67-7.41,14.32,14.32,0,0,0,0-5.76,18.4,18.4,0,0,0-4.78-4.91,1.57,1.57,0,0,0-.59-.33.6.6,0,0,0-.63.17.88.88,0,0,0-.06.73,12.1,12.1,0,0,0,2.61,5.25c-2.75,2-6.16,6.38-5.12,11.44C1043.08,124.24,1045.17,123.85,1047.26,124.24Z" transform="translate(-87.41 -18.32)"/><polygon class="cls-3" points="964.74 72.62 973.82 62.34 975.84 64.56 964.74 72.62"/><polygon class="cls-3" points="961.14 70.14 962.06 60.99 964.96 61.78 961.14 70.14"/><polygon class="cls-3" points="967.31 75.71 976.1 73.18 976.45 76.16 967.31 75.71"/><path class="cls-11" d="M1050.25,124.7c-3.45-4.21-12.68-1.25-12.41,4.24s16,38.6,21.36,42.13,11.27-8.33,10-14.28C1066.77,145.8,1053.25,128.36,1050.25,124.7Z" transform="translate(-87.41 -18.32)"/><path class="cls-11" d="M1117,153.07c-12.53-1.25-37.52.37-47.81,3.72-8.05,2.62-15.49,10.31-10,14.28,8,5.74,40.88,7.19,50.2,5.55C1115.71,175.5,1121.44,153.51,1117,153.07Z" transform="translate(-87.41 -18.32)"/><path class="cls-12" d="M1063.47,161.86a13.81,13.81,0,0,1,5.75-5.17,10,10,0,0,0-2.1,5.93" transform="translate(-87.41 -18.32)"/><path class="cls-11" d="M1154.29,128.13c2.24-.38,4.76-.53,6.59.83s2.39,3.75,2.67,6c.82,6.51-.06,13.59-4.24,18.65a23.4,23.4,0,0,1-8.81,6.24,29.89,29.89,0,0,1-14.54,2.61,21.19,21.19,0,0,1-13.3-6.08,7.77,7.77,0,0,1-2.52-5,8.45,8.45,0,0,1,1.71-4.66,30.72,30.72,0,0,1,10.27-9.69c2-1.18,4.15-2.11,6.2-3.27a49.64,49.64,0,0,1,7.26-3.34A48.35,48.35,0,0,1,1154.29,128.13Z" transform="translate(-87.41 -18.32)"/><path class="cls-11" d="M1167.65,173.26c-.75,7.71-1.49,15.55.08,23.13,1.34,6.44,4.33,12.63,4.25,19.21,0,3.82-1.27,7.77-4.06,10.39s-6.48,3.5-10.11,4.24c-13.78,2.78-28.22,3.4-41.81-.21-3.74-1-7.69-2.53-9.69-5.85-1.81-3-1.58-6.78-1.1-10.26.94-6.77,2.64-13.41,3.68-20.16s1.61-13.59-.13-20.2c-5.9-1.06-7.11-15.43-3.63-17.55s15-3.47,22.79-4.18h20.44c7.06,0,17.12,1.31,21.51,3.88S1174.05,169.49,1167.65,173.26Z" transform="translate(-87.41 -18.32)"/><path class="cls-12" d="M1109,167.22a22.42,22.42,0,0,0,.59,10.07,30.71,30.71,0,0,1-4.38-6.53" transform="translate(-87.41 -18.32)"/><path class="cls-12" d="M1167.37,166.25a19.12,19.12,0,0,1,0,9.82,20.79,20.79,0,0,0,4-5.93" transform="translate(-87.41 -18.32)"/><path class="cls-12" d="M1126.13,177.85A61.56,61.56,0,0,0,1160,218.1" transform="translate(-87.41 -18.32)"/><path class="cls-12" d="M1123.57,204.12a34.15,34.15,0,0,0,14.87,13.33" transform="translate(-87.41 -18.32)"/><path class="cls-16" d="M1119.24,113.91a24.24,24.24,0,0,1-4.63-12.93c-.16-3.06.38-6.41,2.61-8.53a9,9,0,0,1,6.22-2.21,23.17,23.17,0,0,1,6.63,1.22c6.11,1.82,12.18,4.22,17.08,8.3a11.73,11.73,0,0,1,2.79,3.09,5.75,5.75,0,0,1,.75,4.13,2.38,2.38,0,0,1,3.26-.52,3.85,3.85,0,0,1,1.47,3.24,10.64,10.64,0,0,1-.88,3.57,60.7,60.7,0,0,1-5.18,11Z" transform="translate(-87.41 -18.32)"/><path class="cls-1" d="M1127.45,143.8a17,17,0,0,0,8.16-2,17.43,17.43,0,0,0,6.21-5.56l2.58-3.82V109.53a8.51,8.51,0,0,0-8.69-8.51l-7.84.18c-4.63.1-6.59,4.22-8.32,8.51-2.1,5.18-.41,8.45-.58,14,0,.64-.07,1.3-.14,2,0,.27-.07.55-.11.84,0,.14,0,.28-.06.42s-.08.52-.13.78-.09.49-.12.72,0,.2-.05.3c-.08.56-.15,1.1-.19,1.63s-.08,1-.09,1.47C1117.82,141,1123.6,143.78,1127.45,143.8Z" transform="translate(-87.41 -18.32)"/><path class="cls-1" d="M1127.92,151.82s2.72,5,10,5a13.22,13.22,0,0,0,10.44-5l-4-19.41-14.93,9.53-.29,1.78-.57,3.7Z" transform="translate(-87.41 -18.32)"/><path class="cls-16" d="M1128.61,147.42a17.84,17.84,0,0,0,12.76-10.59,17.11,17.11,0,0,1-5.75,5,16.73,16.73,0,0,1-6.44,1.93Z" transform="translate(-87.41 -18.32)"/><path class="cls-1" d="M1140.84,127.77a5.7,5.7,0,1,0,5.7-5.7A5.7,5.7,0,0,0,1140.84,127.77Z" transform="translate(-87.41 -18.32)"/><path class="cls-10" d="M1143.28,130.81a5.56,5.56,0,0,1,6.5-5.14" transform="translate(-87.41 -18.32)"/><path class="cls-10" d="M1145.38,126.79A4.58,4.58,0,0,1,1149,130" transform="translate(-87.41 -18.32)"/><path class="cls-17" d="M1128.65,120a12.65,12.65,0,0,1-.11,2.54,4.26,4.26,0,0,1-1.08,2.27,2.82,2.82,0,0,0-.72.82,1.37,1.37,0,0,0,.35,1.45,4.19,4.19,0,0,0,1.34.83" transform="translate(-87.41 -18.32)"/><path class="cls-16" d="M1126,115.8a1.63,1.63,0,0,1-.19.92,1.56,1.56,0,0,1-.69.63,4.73,4.73,0,0,0-2-.92,3.16,3.16,0,0,0-1.94.43,8.51,8.51,0,0,0-1.63,1.23.41.41,0,0,1-.36-.37,5,5,0,0,1,3-2.51A4.81,4.81,0,0,1,1126,115.8Z" transform="translate(-87.41 -18.32)"/><path class="cls-16" d="M1122,121.69c0,.66.39,1.19.87,1.19s.87-.53.87-1.19-.39-1.2-.87-1.2S1122,121,1122,121.69Z" transform="translate(-87.41 -18.32)"/><path class="cls-17" d="M1125.42,122.06a2.48,2.48,0,0,0-2.47-1.57,2.86,2.86,0,0,0-2.6,1.56" transform="translate(-87.41 -18.32)"/><path class="cls-16" d="M1131.13,115.8a1.55,1.55,0,0,0,.19.92,1.54,1.54,0,0,0,.68.63,4.76,4.76,0,0,1,2-.92,3.17,3.17,0,0,1,1.94.43,8.51,8.51,0,0,1,1.63,1.23.41.41,0,0,0,.36-.37,5,5,0,0,0-3-2.51A4.79,4.79,0,0,0,1131.13,115.8Z" transform="translate(-87.41 -18.32)"/><path class="cls-16" d="M1135.13,121.69c0,.66-.39,1.19-.87,1.19s-.87-.53-.87-1.19.39-1.2.87-1.2S1135.13,121,1135.13,121.69Z" transform="translate(-87.41 -18.32)"/><path class="cls-17" d="M1131.73,122.06a2.47,2.47,0,0,1,2.46-1.57,2.86,2.86,0,0,1,2.61,1.56" transform="translate(-87.41 -18.32)"/><path class="cls-10" d="M1129.21,138a3.42,3.42,0,0,0-3.11,0" transform="translate(-87.41 -18.32)"/><path class="cls-18" d="M1133.13,127.77c0,.53,1.31,1,2.93,1s2.93-.44,2.93-1-1.31-1-2.93-1S1133.13,127.23,1133.13,127.77Z" transform="translate(-87.41 -18.32)"/><path class="cls-18" d="M1118.41,128.48a6.92,6.92,0,0,0,2,.26c1.62,0,2.93-.44,2.93-1s-1.31-1-2.93-1a7.35,7.35,0,0,0-1.72.19c0,.26-.08.52-.13.78S1118.44,128.25,1118.41,128.48Z" transform="translate(-87.41 -18.32)"/><path class="cls-17" d="M1121,132.38a9.81,9.81,0,0,0,14.89-.8" transform="translate(-87.41 -18.32)"/><path class="cls-16" d="M1146.41,122.08a5.66,5.66,0,0,0-4.67,2.62,2.13,2.13,0,0,1-1.56-.88,3.26,3.26,0,0,1-.39-2.61,10.53,10.53,0,0,1,1-2.51c.76-1.52,1.45-3.08,2.06-4.66a6.56,6.56,0,0,0,.6-3.87,4.49,4.49,0,0,0-3.75-3.1,8.86,8.86,0,0,0-5,1c-2.55,1.19-4.92,3-7.72,3.23a6.94,6.94,0,0,1-7.25-5.36l6.87-6,14.19.73,4.54,3.68Z" transform="translate(-87.41 -18.32)"/><path class="cls-11" d="M1123.94,152.71c2.08,4.55,7,7.46,11.93,8s10-1.19,14.4-3.62a16,16,0,0,0,.81-13.9,21.54,21.54,0,0,0-14,13.31,25.41,25.41,0,0,0-10.81-10.13C1125.07,148.2,1123,150.72,1123.94,152.71Z" transform="translate(-87.41 -18.32)"/><path class="cls-12" d="M1160.84,151.8a25.83,25.83,0,0,1-13.47,9.52,29.17,29.17,0,0,1-16.56,0,21,21,0,0,1-6.61-3.15c-2-1.46-3.22-4-4.06-6.31" transform="translate(-87.41 -18.32)"/><path class="cls-12" d="M1136.42,155.49a34.3,34.3,0,0,1,2.52,5.08" transform="translate(-87.41 -18.32)"/><path class="cls-12" d="M1145.86,153.94a3.1,3.1,0,0,0-3.09,3.75" transform="translate(-87.41 -18.32)"/><path class="cls-12" d="M1129.2,154.19a4.06,4.06,0,0,1,2.9,3.85" transform="translate(-87.41 -18.32)"/><path class="cls-19" d="M669.65,104.35c-2.85-2.61-7.47-2.54-10.82-.6s-5.57,5.37-7.06,8.94a42.46,42.46,0,0,0-3,16.43,82.21,82.21,0,0,0,2,16.67,49.51,49.51,0,0,0,25.23,2C676.11,133.19,680.39,114.21,669.65,104.35Z" transform="translate(-87.41 -18.32)"/><path class="cls-20" d="M685.7,150.2a17,17,0,0,1-8.17-2,17.4,17.4,0,0,1-6.2-5.56l-2.58-3.82V115.93a8.51,8.51,0,0,1,8.69-8.51l7.84.18c4.63.1,6.58,4.22,8.32,8.51,2.1,5.17.41,8.45.58,14,0,.64.06,1.3.14,2,0,.27.06.55.1.84,0,.13.05.28.06.42s.09.52.14.78.09.49.12.72,0,.2,0,.29c.08.57.15,1.11.19,1.64s.08,1,.09,1.47C695.33,147.44,689.55,150.18,685.7,150.2Z" transform="translate(-87.41 -18.32)"/><path class="cls-20" d="M685.23,158.22s-2.73,5-10,5a13.22,13.22,0,0,1-10.44-5l4-19.41,14.94,9.53.29,1.78.57,3.7Z" transform="translate(-87.41 -18.32)"/><path class="cls-16" d="M684.54,153.82a17.85,17.85,0,0,1-7.73-3.76,18.07,18.07,0,0,1-5-6.83,17.12,17.12,0,0,0,5.75,5,16.49,16.49,0,0,0,6.44,1.92Z" transform="translate(-87.41 -18.32)"/><path class="cls-20" d="M672.31,134.16a5.7,5.7,0,1,1-5.7-5.69A5.7,5.7,0,0,1,672.31,134.16Z" transform="translate(-87.41 -18.32)"/><path class="cls-21" d="M669.87,137.21a5.58,5.58,0,0,0-6.5-5.14" transform="translate(-87.41 -18.32)"/><path class="cls-21" d="M667.76,133.19a4.6,4.6,0,0,0-3.62,3.21" transform="translate(-87.41 -18.32)"/><path class="cls-17" d="M684.5,126.38a12.65,12.65,0,0,0,.11,2.54,4.13,4.13,0,0,0,1.08,2.26,3,3,0,0,1,.72.83,1.39,1.39,0,0,1-.35,1.45,4.1,4.1,0,0,1-1.34.82" transform="translate(-87.41 -18.32)"/><path class="cls-19" d="M687.13,122.2a1.55,1.55,0,0,0,.19.92,1.65,1.65,0,0,0,.68.63,4.82,4.82,0,0,1,2-.92,3.17,3.17,0,0,1,1.94.43,8.11,8.11,0,0,1,1.63,1.23.41.41,0,0,0,.36-.37,5,5,0,0,0-3-2.51A4.79,4.79,0,0,0,687.13,122.2Z" transform="translate(-87.41 -18.32)"/><path class="cls-17" d="M687.73,128.46a2.47,2.47,0,0,1,2.46-1.57,2.86,2.86,0,0,1,2.61,1.56" transform="translate(-87.41 -18.32)"/><path class="cls-19" d="M682,122.2a1.63,1.63,0,0,1-.19.92,1.65,1.65,0,0,1-.68.63,4.82,4.82,0,0,0-2-.92,3.16,3.16,0,0,0-1.94.43,8.11,8.11,0,0,0-1.63,1.23.41.41,0,0,1-.36-.37,5,5,0,0,1,3-2.51A4.79,4.79,0,0,1,682,122.2Z" transform="translate(-87.41 -18.32)"/><path class="cls-17" d="M681.42,128.46a2.48,2.48,0,0,0-2.47-1.57,2.86,2.86,0,0,0-2.6,1.56" transform="translate(-87.41 -18.32)"/><path class="cls-21" d="M684.48,145.82a3.42,3.42,0,0,1,3.11,0" transform="translate(-87.41 -18.32)"/><path class="cls-22" d="M680,134.16c0,.54-1.31,1-2.93,1s-2.93-.44-2.93-1,1.31-1,2.93-1S680,133.63,680,134.16Z" transform="translate(-87.41 -18.32)"/><path class="cls-22" d="M694.74,134.88a6.92,6.92,0,0,1-2,.26c-1.62,0-2.93-.44-2.93-1s1.31-1,2.93-1a7.2,7.2,0,0,1,1.71.19c0,.25.09.52.14.78S694.71,134.65,694.74,134.88Z" transform="translate(-87.41 -18.32)"/><path class="cls-3" d="M679.94,139.06a16.43,16.43,0,0,1,10.57-.26,5.86,5.86,0,0,1-5.16,3.85A6,6,0,0,1,679.94,139.06Z" transform="translate(-87.41 -18.32)"/><path class="cls-19" d="M697.82,118.14a38.06,38.06,0,0,1-20.4,1.2,11.24,11.24,0,0,0-7.37-7,31.91,31.91,0,0,1,2.8,7.14,16.1,16.1,0,0,1,.09,7.62,5.64,5.64,0,0,1-1.37,2.71,3,3,0,0,1-.77.55,5.66,5.66,0,0,0-6.71-1.27l-2.24-12.27,6.1-11.54a14.22,14.22,0,0,1,12.12-5.56,18,18,0,0,1,12.15,6A24.4,24.4,0,0,1,697.82,118.14Z" transform="translate(-87.41 -18.32)"/><path class="cls-20" d="M704.42,181.62c.21,5.71-2.74,20.37-4.94,29.29-.64,2.62-1.22,4.74-1.64,6a124.53,124.53,0,0,1,5.92,13.44l-27.12,17.38-31.47-16.46c1.18-4,2.37-7,6.4-14.49a28.81,28.81,0,0,1-1.83-5.85,246.43,246.43,0,0,1-4.44-30.12c-6.85-.41-8.3-13.67-5.8-15.51.94-.7,3.8-1.72,7.35-2.77a164.51,164.51,0,0,1,17.94-4.31h20.44c4.69.38,11.89,2.3,17.46,4.13,2.62.86,4.87,1.69,6.34,2.34C713.64,166.73,710.85,178.33,704.42,181.62Z" transform="translate(-87.41 -18.32)"/><path class="cls-20" d="M600,179.47l5.64-4.94a35,35,0,0,0-.45-8.61,14.5,14.5,0,0,0-1.78-4.42A2.06,2.06,0,0,0,603,161a.71.71,0,0,0-.65-.16c-.39.13-.5.62-.52,1a13.27,13.27,0,0,0,.55,4.52,3.93,3.93,0,0,0-1.09,1.34,48.07,48.07,0,0,0-6.3-8.81c-.2-.23-.46-.47-.76-.41a.63.63,0,0,0-.43.61,1.91,1.91,0,0,0,.23.76l3,6.48a59.23,59.23,0,0,0-5.77-7,2.07,2.07,0,0,0-.73-.55.69.69,0,0,0-.81.22,1,1,0,0,0,.12,1,79.19,79.19,0,0,0,4.61,8,43.58,43.58,0,0,0-6.77-6.18c-.25-.19-.6-.38-.87-.21a.58.58,0,0,0-.19.6,1.66,1.66,0,0,0,.34.57l5.69,7.26c-1.65-1.24-3.36-2.4-5.1-3.51-.4-.25-1-.49-1.3-.15a.72.72,0,0,0-.1.75,2.36,2.36,0,0,0,.46.64C590.66,172.07,594.92,176.36,600,179.47Z" transform="translate(-87.41 -18.32)"/><path class="cls-21" d="M601.61,167.17A8.23,8.23,0,0,0,600,174" transform="translate(-87.41 -18.32)"/><path class="cls-21" d="M598.16,165.77a11.56,11.56,0,0,0-6.33,5.6" transform="translate(-87.41 -18.32)"/><path class="cls-20" d="M639.51,165.3c-4.51,2.07-13,37.29-13,45.35,0,3.8,5.57,7.12,10.28,4.61s10.81-22.56,11.94-28.54S644.08,163.2,639.51,165.3Z" transform="translate(-87.41 -18.32)"/><path class="cls-20" d="M631.53,215.8c-5.38.33-30.41-32.07-31.57-36.33s3.8-6.32,5.64-4.94,21.63,16.79,24.62,21.62S637.55,215.44,631.53,215.8Z" transform="translate(-87.41 -18.32)"/><path class="cls-21" d="M633.05,201.43a15.65,15.65,0,0,0-4-6.83,12.61,12.61,0,0,1,4.29,3.37" transform="translate(-87.41 -18.32)"/><path class="cls-20" d="M709.73,165.12c6.72,5.21,9.12,43.11,6.35,51.59-1.73,5.26-9.52,4-10.87-.58-2.05-7-4.23-25.14-4.11-29.73S704.47,161.05,709.73,165.12Z" transform="translate(-87.41 -18.32)"/><path class="cls-20" d="M716.08,216.71c1.06,9.18-2.66,42.26-3.5,44.8s-7,2.94-7.25,0c-.89-8.94-8.33-32.6.37-44.25C710.4,211,715.59,212.48,716.08,216.71Z" transform="translate(-87.41 -18.32)"/><path class="cls-23" d="M639.5,165.3c-5.27,2.62-10.31,19.58-11.44,23.79,3.47,2.81,17.08,8.81,20.7,8l4.06-22Z" transform="translate(-87.41 -18.32)"/><path class="cls-23" d="M709,164.69c4.86,2.63,9.73,18.09,10.25,25.13-4.69,4.25-15.38,7.64-20.76,6.51L697,175.22Z" transform="translate(-87.41 -18.32)"/><path class="cls-23" d="M704.42,181.62c2.23,8.12,1.87,22.82,0,28.08a29.25,29.25,0,0,1-5,1.21c-12.68,2.17-38.5,2.12-49.74,0a17.63,17.63,0,0,1-4.28-1.23c-1.79-8.25-1.4-23.24-.16-28.89-6.85-.41-8.3-13.67-5.8-15.51.94-.7,3.8-1.72,7.35-2.77a78.92,78.92,0,0,0,55.84-.18c2.62.86,4.87,1.69,6.34,2.34C713.64,166.73,710.85,178.33,704.42,181.62Z" transform="translate(-87.41 -18.32)"/><path class="cls-24" d="M645.59,180.33a62.84,62.84,0,0,0-1.54,17.61" transform="translate(-87.41 -18.32)"/><path class="cls-24" d="M644.49,186.21a18.75,18.75,0,0,1-2.51-5.87" transform="translate(-87.41 -18.32)"/><path class="cls-24" d="M704.56,181.49a98.41,98.41,0,0,1,1.21,15.33" transform="translate(-87.41 -18.32)"/><path class="cls-24" d="M705.42,187.06a17.36,17.36,0,0,0,2.77-7.14" transform="translate(-87.41 -18.32)"/><path class="cls-20" d="M670.89,328.75c0,9.82-13.36,102.58-14.49,107.86s-8.65,4.38-8.69,0c-.32-31.74-14.33-79.4.64-98C660.46,323.48,670.89,319.6,670.89,328.75Z" transform="translate(-87.41 -18.32)"/><path class="cls-20" d="M648,438l8.38-1.42c1.08,5.33,2.56,11.34,12.81,14l-.37,3-13.91-.8-7.57-8.26Z" transform="translate(-87.41 -18.32)"/><path class="cls-25" d="M643.65,458.09h0a2,2,0,0,0,1.78-1.18l2-4.73a28.31,28.31,0,0,0,7.25,4.16,23.41,23.41,0,0,0,8.9,1.75h8.95a2.93,2.93,0,0,0,3-2.61c.12-1.71-1.3-3.53-6.31-4.89-7.64,1.59-14.49,2.48-21.19-12.56-1.51-2.71-3.45-.84-3.81.39-.29,1-1.83,12.57-2.47,17.49A1.92,1.92,0,0,0,643.65,458.09Z" transform="translate(-87.41 -18.32)"/><path class="cls-20" d="M708.2,328.75c0,9.82-13.36,102.58-14.49,107.86s-8.65,4.38-8.69,0c-.32-31.74-14.33-79.4.64-98C697.77,323.48,708.2,319.6,708.2,328.75Z" transform="translate(-87.41 -18.32)"/><path class="cls-20" d="M685.33,438l8.38-1.42c1.08,5.33,2.56,11.34,12.81,14l-.37,3-13.91-.8-7.57-8.26Z" transform="translate(-87.41 -18.32)"/><path class="cls-25" d="M681,458.09h0a2,2,0,0,0,1.78-1.18l2-4.73a28.31,28.31,0,0,0,7.25,4.16,23.41,23.41,0,0,0,8.9,1.75h8.94a2.93,2.93,0,0,0,3-2.61c.11-1.71-1.3-3.53-6.31-4.89-7.64,1.59-14.49,2.48-21.19-12.56-1.51-2.71-3.45-.84-3.81.39-.29,1-1.83,12.57-2.47,17.49A1.92,1.92,0,0,0,681,458.09Z" transform="translate(-87.41 -18.32)"/><path class="cls-23" d="M702.9,228.11c-10.31,4.67-44.17,6-56.69,0-14.25,20.15-14.58,75.16-5.77,116.7,15.55,9,56.32,7.41,68.72,0C716.27,308.42,720.39,254.22,702.9,228.11Z" transform="translate(-87.41 -18.32)"/><path class="cls-24" d="M704.79,233.32a84.43,84.43,0,0,1-59.54.38" transform="translate(-87.41 -18.32)"/><path class="cls-24" d="M677.07,234.44a1048.33,1048.33,0,0,1-.17,112.4" transform="translate(-87.41 -18.32)"/><path class="cls-24" d="M708.33,338.72a127.81,127.81,0,0,1-66.9-.15" transform="translate(-87.41 -18.32)"/><path class="cls-24" d="M654.92,232.68a26.67,26.67,0,0,1-17.41,22" transform="translate(-87.41 -18.32)"/><path class="cls-24" d="M695.43,231.73a29.57,29.57,0,0,0,15,23.31" transform="translate(-87.41 -18.32)"/><path class="cls-24" d="M689.66,270.76a136.69,136.69,0,0,1-34.86,53.06" transform="translate(-87.41 -18.32)"/><polygon class="cls-1" points="647.12 414.57 644.83 428.9 637.07 428.9 635.38 413.76 647.12 414.57"/><path class="cls-2" d="M717.43,454.54a15.69,15.69,0,0,1,1.79-9.38c.71-1.31,2-2.66,3.43-2.35,1.1.23,1.77,1.31,2.63,2A4.79,4.79,0,0,0,731,445c.76-.56,1.41-1.39,2.34-1.58a3.12,3.12,0,0,1,2.94,1.53,22.24,22.24,0,0,0,2,2.88,5.93,5.93,0,0,0,4.28,1.49,23.86,23.86,0,0,0,4.58-.72c3.28-.69,6.76-1,9.94.07s6,3.83,6.24,7.17A54.34,54.34,0,0,1,735,456,27.66,27.66,0,0,1,717.43,454.54Z" transform="translate(-87.41 -18.32)"/><path class="cls-3" d="M714.33,457.48c5.75,3.43,15.53,2.93,21.74.57,8.69,3,21.29,3.47,29.38-.25l-2.25-4.29a44.27,44.27,0,0,1-27.13-.46,28,28,0,0,1-19.37,0Z" transform="translate(-87.41 -18.32)"/><path class="cls-4" d="M735.24,440.07c-1.25,1.13-2.88,3-2.15,4.49a9,9,0,0,0,11.47,4.6A32.29,32.29,0,0,0,735.24,440.07Z" transform="translate(-87.41 -18.32)"/><path class="cls-5" d="M726.1,454.23a8.69,8.69,0,0,0-7.46-5.8" transform="translate(-87.41 -18.32)"/><path class="cls-6" d="M738.84,442.38A10,10,0,0,0,734,446" transform="translate(-87.41 -18.32)"/><path class="cls-6" d="M742.24,445.68a9.46,9.46,0,0,0-4.81,3.09" transform="translate(-87.41 -18.32)"/><polygon class="cls-1" points="680.37 400.19 673.88 413.17 666.48 410.84 669.42 395.89 680.37 400.19"/><path class="cls-2" d="M745,434a15.68,15.68,0,0,1,4.53-8.41c1.07-1,2.68-1.95,4-1.21,1,.55,1.29,1.78,1.89,2.73a4.8,4.8,0,0,0,5.43,1.91,6.78,6.78,0,0,1,2.71-.81,3.15,3.15,0,0,1,2.34,2.35,21.14,21.14,0,0,0,1,3.34,6,6,0,0,0,3.63,2.71,24.46,24.46,0,0,0,4.59.69c3.34.33,6.75,1.08,9.46,3.06s4.54,5.44,3.79,8.71a54.27,54.27,0,0,1-27.05-8.42A27.67,27.67,0,0,1,745,434Z" transform="translate(-87.41 -18.32)"/><path class="cls-3" d="M741.12,435.89c4.46,5,13.93,7.46,20.56,7.08,7.39,5.47,19.27,9.72,28.09,8.6l-.85-4.77a44.29,44.29,0,0,1-25.74-8.6,28,28,0,0,1-18.47-5.81Z" transform="translate(-87.41 -18.32)"/><path class="cls-4" d="M766.3,425.57c-1.54.71-3.63,2-3.4,3.64a8.95,8.95,0,0,0,9.56,7.83A32.56,32.56,0,0,0,766.3,425.57Z" transform="translate(-87.41 -18.32)"/><path class="cls-5" d="M753.32,436.33a8.67,8.67,0,0,0-5.37-7.77" transform="translate(-87.41 -18.32)"/><path class="cls-6" d="M769,428.86a10.07,10.07,0,0,0-5.69,2" transform="translate(-87.41 -18.32)"/><path class="cls-6" d="M771.29,433a9.47,9.47,0,0,0-5.52,1.5" transform="translate(-87.41 -18.32)"/><path class="cls-26" d="M737.12,228.11c-28.75,29.13-18.15,56.6-5.69,99.73C711.08,350,717.31,401.55,721,433.16h16.09c6.07-21.88,17.6-91.75,17.83-105.54,5.2-18.09,17-68.05,15.2-95.21Z" transform="translate(-87.41 -18.32)"/><path class="cls-26" d="M786,228.11c7,12.45,36.21,84.43,34.31,96.34-2.72,17-51.56,95.42-51.56,95.42l-15.6-4.3c8.64-35,13.79-76.42,40.7-87.95-17-17-41.94-57.89-42.56-68.52s5-28.5,5-28.5Z" transform="translate(-87.41 -18.32)"/><path class="cls-27" d="M770.26,233.32c.26,19.5-1.35,39-6.58,57.82" transform="translate(-87.41 -18.32)"/><path class="cls-27" d="M726,260.56a42.31,42.31,0,0,0,5.93-5,42.85,42.85,0,0,0,5.07-6.18,42.26,42.26,0,0,0,5.33-10.77" transform="translate(-87.41 -18.32)"/><path class="cls-27" d="M777.82,232.49a191.75,191.75,0,0,1-1.75,26,62.59,62.59,0,0,1-15.85,9.14" transform="translate(-87.41 -18.32)"/><path class="cls-27" d="M755.37,327.57a30.26,30.26,0,0,1-17.56,1.79" transform="translate(-87.41 -18.32)"/><path class="cls-27" d="M821,324.61a36,36,0,0,1-14.36,3.22" transform="translate(-87.41 -18.32)"/><path class="cls-27" d="M722.62,262.23c-2.15,16.73,4.78,46.23,12,66.9a43.47,43.47,0,0,0-10.88,18.52,97.23,97.23,0,0,0-3,21.37c-1,20.88.41,41.8,1.86,62.65" transform="translate(-87.41 -18.32)"/><path class="cls-27" d="M767.19,286a169.66,169.66,0,0,0,32,42.24c-9.48,4.17-17.2,12.61-22.18,21.69S769.1,369,766.19,378.94q-5.19,17.81-10.4,35.61" transform="translate(-87.41 -18.32)"/><path class="cls-27" d="M787.73,232.78a78.54,78.54,0,0,1-53.12.27" transform="translate(-87.41 -18.32)"/><path class="cls-13" d="M879.75,121.94H867a1.5,1.5,0,0,1-1.5-1.5V93.82a1.5,1.5,0,0,1,1.5-1.5h12.77a1.5,1.5,0,0,1,1.5,1.5v26.62A1.5,1.5,0,0,1,879.75,121.94Z" transform="translate(-87.41 -18.32)"/><path class="cls-14" d="M879.75,93.82v26.62a1,1,0,0,1-1,1H866a1,1,0,0,1-1-1V93.82a1,1,0,0,1,1-1h12.78a1,1,0,0,1,1,.8A1.23,1.23,0,0,1,879.75,93.82Z" transform="translate(-87.41 -18.32)"/><path class="cls-15" d="M879.75,93.82V104q-6.16,8.76-12.5,17.42H866a1,1,0,0,1-1-1V107.7q7.18-7.23,14.76-14.08A1.23,1.23,0,0,1,879.75,93.82Z" transform="translate(-87.41 -18.32)"/><path class="cls-16" d="M878.75,121.94H866a1.5,1.5,0,0,1-1.5-1.5V93.82a1.5,1.5,0,0,1,1.5-1.5h12.77a1.5,1.5,0,0,1,1.5,1.5v26.62A1.5,1.5,0,0,1,878.75,121.94ZM866,93.32a.5.5,0,0,0-.5.5v26.62a.5.5,0,0,0,.5.5h12.77a.5.5,0,0,0,.5-.5V93.82a.5.5,0,0,0-.5-.5Z" transform="translate(-87.41 -18.32)"/><path class="cls-16" d="M780.92,74.5H789a0,0,0,0,1,0,0v.93a1.16,1.16,0,0,1-1.16,1.16h-5.76a1.16,1.16,0,0,1-1.16-1.16V74.5A0,0,0,0,1,780.92,74.5Z"/><polygon class="cls-3" points="773.23 70.74 762.13 62.67 764.15 60.45 773.23 70.74"/><polygon class="cls-3" points="776.83 68.26 773.01 59.9 775.91 59.11 776.83 68.26"/><polygon class="cls-3" points="770.66 73.83 761.52 74.28 761.87 71.3 770.66 73.83"/><path class="cls-28" d="M758.88,151.49a7.94,7.94,0,0,1-4.74.63A3.92,3.92,0,0,1,751,149a5.42,5.42,0,0,1-6.6,0,5.59,5.59,0,0,1-1.36-6.57,4.81,4.81,0,0,1-5.24-.63,5.89,5.89,0,0,1-2-5,6.9,6.9,0,0,1,2.38-4.64,5.13,5.13,0,0,1-4.32-3.25,5.73,5.73,0,0,1,.83-5.4,6.52,6.52,0,0,1,4.89-2.57,6.58,6.58,0,0,1-.34-10.92,6.49,6.49,0,0,1,6.05-.63A6.28,6.28,0,0,1,755.83,103a6.5,6.5,0,0,1,12.07-3.22,6.6,6.6,0,0,1,7.62-2,6.47,6.47,0,0,1,3.72,6.86,5.63,5.63,0,0,1,6.67,1.29,5.79,5.79,0,0,1,.25,6.9,6.85,6.85,0,0,1,7,4.29,7,7,0,0,1-2.26,7.94,5.92,5.92,0,0,1,3.37,5.89,6.25,6.25,0,0,1-4.63,5.23,5.09,5.09,0,0,1,.08,6.15,5.27,5.27,0,0,1-6,1.66,5,5,0,0,1-3.57,5,7.83,7.83,0,0,1-6.45-1Z" transform="translate(-87.41 -18.32)"/><path class="cls-1" d="M771.7,150.2a17,17,0,0,1-8.17-2,17.4,17.4,0,0,1-6.2-5.56l-2.58-3.82V115.93a8.51,8.51,0,0,1,8.69-8.51l7.84.18c4.63.1,6.59,4.22,8.32,8.51,2.1,5.17.41,8.45.58,14,0,.64.06,1.3.14,2,0,.27.07.55.1.84,0,.13.05.28.07.42s.08.52.13.78.09.49.12.72,0,.2,0,.29c.08.57.15,1.11.19,1.64s.08,1,.09,1.47C781.33,147.44,775.55,150.18,771.7,150.2Z" transform="translate(-87.41 -18.32)"/><path class="cls-1" d="M771.23,158.22s-2.72,5-10,5a13.22,13.22,0,0,1-10.44-5l4-19.41,14.94,9.53.29,1.78.57,3.7Z" transform="translate(-87.41 -18.32)"/><path class="cls-16" d="M770.54,153.82a17.85,17.85,0,0,1-7.73-3.76,18.07,18.07,0,0,1-5-6.83,17.22,17.22,0,0,0,5.75,5,16.49,16.49,0,0,0,6.44,1.92Z" transform="translate(-87.41 -18.32)"/><path class="cls-1" d="M758.31,134.16a5.7,5.7,0,1,1-5.7-5.69A5.7,5.7,0,0,1,758.31,134.16Z" transform="translate(-87.41 -18.32)"/><path class="cls-10" d="M755.87,137.21a5.58,5.58,0,0,0-6.5-5.14" transform="translate(-87.41 -18.32)"/><path class="cls-10" d="M753.76,133.19a4.58,4.58,0,0,0-3.61,3.21" transform="translate(-87.41 -18.32)"/><path class="cls-17" d="M770.5,126.38a12.65,12.65,0,0,0,.11,2.54,4.2,4.2,0,0,0,1.08,2.26,3,3,0,0,1,.72.83,1.37,1.37,0,0,1-.35,1.45,4,4,0,0,1-1.34.82" transform="translate(-87.41 -18.32)"/><path class="cls-28" d="M773.13,122.2a1.63,1.63,0,0,0,.19.92,1.65,1.65,0,0,0,.68.63,4.82,4.82,0,0,1,2-.92,3.16,3.16,0,0,1,1.94.43,8.11,8.11,0,0,1,1.63,1.23.41.41,0,0,0,.36-.37,5,5,0,0,0-3-2.51A4.79,4.79,0,0,0,773.13,122.2Z" transform="translate(-87.41 -18.32)"/><path class="cls-17" d="M773.73,128.46a2.48,2.48,0,0,1,2.47-1.57,2.86,2.86,0,0,1,2.6,1.56" transform="translate(-87.41 -18.32)"/><path class="cls-28" d="M768,122.2a1.63,1.63,0,0,1-.19.92,1.65,1.65,0,0,1-.68.63,4.82,4.82,0,0,0-2-.92,3.16,3.16,0,0,0-1.94.43,8.11,8.11,0,0,0-1.63,1.23.41.41,0,0,1-.36-.37,5,5,0,0,1,3-2.51A4.79,4.79,0,0,1,768,122.2Z" transform="translate(-87.41 -18.32)"/><path class="cls-17" d="M767.42,128.46a2.48,2.48,0,0,0-2.47-1.57,2.86,2.86,0,0,0-2.6,1.56" transform="translate(-87.41 -18.32)"/><path class="cls-10" d="M770.48,145.82a3.42,3.42,0,0,1,3.11,0" transform="translate(-87.41 -18.32)"/><path class="cls-18" d="M766,134.16c0,.54-1.31,1-2.93,1s-2.93-.44-2.93-1,1.31-1,2.93-1S766,133.63,766,134.16Z" transform="translate(-87.41 -18.32)"/><path class="cls-18" d="M780.74,134.88a6.92,6.92,0,0,1-2,.26c-1.62,0-2.93-.44-2.93-1s1.31-1,2.93-1a7.35,7.35,0,0,1,1.72.19c0,.25.08.52.13.78S780.71,134.65,780.74,134.88Z" transform="translate(-87.41 -18.32)"/><path class="cls-3" d="M765.94,139.06a16.43,16.43,0,0,1,10.57-.26,5.86,5.86,0,0,1-5.16,3.85A6,6,0,0,1,765.94,139.06Z" transform="translate(-87.41 -18.32)"/><path class="cls-28" d="M779.68,115.51a5.46,5.46,0,0,1-9.43-.06,5.56,5.56,0,0,1-9.77-.29,4.71,4.71,0,0,1-.12,4.35,4.55,4.55,0,0,1-3.58,2.34,5,5,0,0,1,.13,8.58,5.71,5.71,0,0,0-4.3-2,5.17,5.17,0,0,0-1.31.16l1.32-15.48,8-6.64,10.82-.38,6,2.75Z" transform="translate(-87.41 -18.32)"/><path class="cls-1" d="M793.53,187.17c.85,3,1.44,6.22.64,9.24A10.67,10.67,0,0,1,786.1,204a86.31,86.31,0,0,0-.88,12.17,89.54,89.54,0,0,0,.77,12c-12.87,6.19-34.34,6.57-48.87,0a46.53,46.53,0,0,0,2.28-11.65,49.36,49.36,0,0,0-.67-12.4A142.47,142.47,0,0,0,731.94,181c-9.22-1.89-7.58-13.51-5.3-15.79s17.18-5.93,24.15-7h20.44c5.18.92,18.19,2.56,21.72,3.7s7.2,13.14-1.76,16.42C791.45,181.45,792.67,184.16,793.53,187.17Z" transform="translate(-87.41 -18.32)"/><path class="cls-1" d="M793.61,162.25c6.66,4.34,26,31,29.38,36.66,3.06,5.1,1.06,17.35-6.35,14-5.63-2.58-21.59-19.2-26.25-27.38S788.26,158.77,793.61,162.25Z" transform="translate(-87.41 -18.32)"/><path class="cls-1" d="M821.43,196.47c5.23-6.17,25.7-14.08,32.61-18,1.76-1,4.66,4.52,2.54,7.06S825.45,215,819.1,213.23,817.56,201,821.43,196.47Z" transform="translate(-87.41 -18.32)"/><path class="cls-10" d="M821.78,205.09a29.72,29.72,0,0,1-.28-8.93,11.31,11.31,0,0,0-3.19,6.39" transform="translate(-87.41 -18.32)"/><path class="cls-1" d="M854,178.44l2.54,7.06c2.17,0,4.27-1.11,6.22-2.07a25.32,25.32,0,0,0,2.88-11.87A28,28,0,0,0,854,178.44Z" transform="translate(-87.41 -18.32)"/><path class="cls-1" d="M854,178.44a46.76,46.76,0,0,1,1.46-7.19,16.57,16.57,0,0,1,5.51-4.63c.3-.18.69-.36,1-.16s.24.72.11,1.09a10.59,10.59,0,0,1-3,4.27,7.82,7.82,0,0,1-1.45,7.81A10.38,10.38,0,0,1,854,178.44Z" transform="translate(-87.41 -18.32)"/><path class="cls-16" d="M775.4,83.23h1.67a0,0,0,0,1,0,0v12a0,0,0,0,1,0,0H775.4a1,1,0,0,1-1-1v-10A1,1,0,0,1,775.4,83.23Z"/><path class="cls-16" d="M792.85,83.23h1.67a1,1,0,0,1,1,1v10a1,1,0,0,1-1,1h-1.67a0,0,0,0,1,0,0v-12A0,0,0,0,1,792.85,83.23Z"/><path class="cls-16" d="M871.41,118.86h1.21a.69.69,0,0,1,.69.69v6.69a.69.69,0,0,1-.69.69h-1.21a0,0,0,0,1,0,0v-8.08A0,0,0,0,1,871.41,118.86Z" transform="translate(907.85 -767.78) rotate(90)"/><line class="cls-29" x1="784.96" y1="104.58" x2="770.72" y2="173.29"/><path class="cls-1" d="M866.51,169.27a1.24,1.24,0,0,1,.86.9,2.12,2.12,0,0,1-.1,1.29,3.33,3.33,0,0,1-1.14,1.51,2.18,2.18,0,0,1,.58,2,2.31,2.31,0,0,1-1.44,1.65,1.9,1.9,0,0,1,.4,2,4.1,4.1,0,0,1-1.4,1.64,1.84,1.84,0,0,1,.19,1.64,2,2,0,0,1-1.23,1.18,15.62,15.62,0,0,1-4.15.84,1.28,1.28,0,0,1-1-.26.86.86,0,0,1-.08-.95,2.28,2.28,0,0,1,.69-.73,3.25,3.25,0,0,0,.74-.69,2.53,2.53,0,0,1-1,0,.87.87,0,0,1-.66-.62,1.19,1.19,0,0,1,.44-1,6.37,6.37,0,0,1,1.64-1.22,3.24,3.24,0,0,1-1-.1.88.88,0,0,1-.59-.61,1.11,1.11,0,0,1,.31-.88,4,4,0,0,1,1.27-1.07c-.44.21-1-.37-1-.86a2,2,0,0,1,.66-1.27A20.41,20.41,0,0,1,866.51,169.27Z" transform="translate(-87.41 -18.32)"/><path class="cls-10" d="M859.71,173.57a3.17,3.17,0,0,0-.7.81,1.29,1.29,0,0,0-.1,1.05.83.83,0,0,0,.85.52,2.92,2.92,0,0,0-1.07.84,1.13,1.13,0,0,0-.09,1.35,1.68,1.68,0,0,0,1.24.43,2.76,2.76,0,0,0-1.72,1.45,1.11,1.11,0,0,0,0,1.18.94.94,0,0,0,.62.3,2.38,2.38,0,0,0,.7-.07,6.89,6.89,0,0,1-.78.65,2,2,0,0,0-.68.81.91.91,0,0,0,.18,1,1.36,1.36,0,0,0,1,.23,12.37,12.37,0,0,0,3.94-.77" transform="translate(-87.41 -18.32)"/><line class="cls-10" x1="772.05" y1="163.11" x2="776.86" y2="162"/><line class="cls-10" x1="772.43" y1="160.25" x2="777.87" y2="158.35"/><line class="cls-10" x1="772.36" y1="157.63" x2="778.73" y2="154.65"/><path class="cls-3" d="M793.53,187.17c.85,3,1.44,6.22.64,9.24A10.67,10.67,0,0,1,786.1,204a38.21,38.21,0,0,0,3.08,11.2c-1.32.35-2.64.67-4,1a106.49,106.49,0,0,1-45.82.31q-2.91-.61-5.78-1.43c1.54-9.82.2-26.58-1.68-34-9.22-1.89-7.58-13.51-5.3-15.79s17.18-5.93,24.15-7c.68,5.5,11.5,14.77,19,17.76,2.68-3.66,2-14.62,1.41-17.76,5.18.92,18.19,2.56,21.72,3.7-2.54,4.09-3.05,7-1.76,16.42A63.48,63.48,0,0,0,793.53,187.17Z" transform="translate(-87.41 -18.32)"/><path class="cls-30" d="M785.73,203.87a69.27,69.27,0,0,1-34.45,1.67" transform="translate(-87.41 -18.32)"/><path class="cls-30" d="M736.4,189a62.59,62.59,0,0,1,1.08,22.78" transform="translate(-87.41 -18.32)"/><path class="cls-30" d="M774.17,159.85a27.58,27.58,0,0,1-2.21,21,33.5,33.5,0,0,1-23.66-19.59" transform="translate(-87.41 -18.32)"/><path class="cls-1" d="M726.64,165.21c-5,2.48-21.91,42.73-22.2,45.27s9.69,4.75,13.27,1c5.5-5.79,14.82-18.49,18.63-27.24C738.26,179.81,734.3,161.42,726.64,165.21Z" transform="translate(-87.41 -18.32)"/><path class="cls-1" d="M737,249.38a42.85,42.85,0,0,1-5.07,6.18c-4.56-4.54-28.14-38.35-27.44-45.08.28-2.67,5-3.66,13.27,1,10,5.65,13.83,29.22,19.11,37.69A1.34,1.34,0,0,1,737,249.38Z" transform="translate(-87.41 -18.32)"/><path class="cls-10" d="M711.39,213.89a14.63,14.63,0,0,1,6.5-2.55,14.06,14.06,0,0,0-2.62,3.22" transform="translate(-87.41 -18.32)"/><path class="cls-31" d="M313.3,160.55a16.33,16.33,0,0,1-7.86-1.93,16.65,16.65,0,0,1-6-5.37L297,149.58V127.53a8.2,8.2,0,0,1,8.38-8.21l7.55.18c4.46.09,6.35,4.06,8,8.19,2,5,.39,8.15.56,13.52,0,.61.06,1.25.13,1.92,0,.26.07.53.1.81l.06.4c0,.25.09.5.13.76s.09.46.12.69,0,.19.05.28c.07.55.14,1.07.18,1.58s.07,1,.09,1.41C322.59,157.89,317,160.54,313.3,160.55Z" transform="translate(-87.41 -18.32)"/><path class="cls-31" d="M312.85,168.28s-2.62,4.79-9.63,4.79a12.74,12.74,0,0,1-10.07-4.79l3.81-18.7,14.4,9.18.28,1.71.55,3.57Z" transform="translate(-87.41 -18.32)"/><path class="cls-16" d="M312.19,164a17.13,17.13,0,0,1-7.45-3.62,17.43,17.43,0,0,1-4.85-6.58,16.51,16.51,0,0,0,5.54,4.78,16.05,16.05,0,0,0,6.2,1.85Z" transform="translate(-87.41 -18.32)"/><path class="cls-31" d="M300.4,145.1a5.5,5.5,0,1,1-5.49-5.49A5.49,5.49,0,0,1,300.4,145.1Z" transform="translate(-87.41 -18.32)"/><path class="cls-32" d="M298.05,148a5.37,5.37,0,0,0-6.27-4.95" transform="translate(-87.41 -18.32)"/><path class="cls-32" d="M296,144.16a4.42,4.42,0,0,0-3.49,3.1" transform="translate(-87.41 -18.32)"/><path class="cls-17" d="M312.15,137.6a12.53,12.53,0,0,0,.1,2.45,4.13,4.13,0,0,0,1.05,2.18,2.73,2.73,0,0,1,.69.79,1.33,1.33,0,0,1-.34,1.4,3.81,3.81,0,0,1-1.29.79" transform="translate(-87.41 -18.32)"/><path class="cls-16" d="M314.68,133.57a1.5,1.5,0,0,0,.19.88,1.45,1.45,0,0,0,.66.61,4.65,4.65,0,0,1,1.91-.89,3,3,0,0,1,1.87.42,7.87,7.87,0,0,1,1.57,1.18.39.39,0,0,0,.35-.36,4.85,4.85,0,0,0-2.87-2.41A4.64,4.64,0,0,0,314.68,133.57Z" transform="translate(-87.41 -18.32)"/><path class="cls-16" d="M318.54,139.24c0,.64-.38,1.15-.84,1.15s-.84-.51-.84-1.15.38-1.15.84-1.15S318.54,138.61,318.54,139.24Z" transform="translate(-87.41 -18.32)"/><path class="cls-17" d="M315.26,139.6a2.39,2.39,0,0,1,2.38-1.51,2.77,2.77,0,0,1,2.51,1.5" transform="translate(-87.41 -18.32)"/><path class="cls-16" d="M309.76,133.57a1.5,1.5,0,0,1-.19.88,1.47,1.47,0,0,1-.65.61,4.71,4.71,0,0,0-1.91-.89,3,3,0,0,0-1.87.42,8.23,8.23,0,0,0-1.58,1.18.37.37,0,0,1-.34-.36,4.8,4.8,0,0,1,2.86-2.41A4.64,4.64,0,0,1,309.76,133.57Z" transform="translate(-87.41 -18.32)"/><path class="cls-16" d="M305.9,139.24c0,.64.38,1.15.84,1.15s.84-.51.84-1.15-.37-1.15-.84-1.15S305.9,138.61,305.9,139.24Z" transform="translate(-87.41 -18.32)"/><path class="cls-17" d="M309.18,139.6a2.38,2.38,0,0,0-2.38-1.51,2.77,2.77,0,0,0-2.51,1.5" transform="translate(-87.41 -18.32)"/><path class="cls-32" d="M312.13,156.33a3.28,3.28,0,0,1,3,0" transform="translate(-87.41 -18.32)"/><path class="cls-33" d="M307.83,145.1c0,.52-1.26.94-2.82.94s-2.83-.42-2.83-.94,1.27-.94,2.83-.94S307.83,144.58,307.83,145.1Z" transform="translate(-87.41 -18.32)"/><path class="cls-33" d="M322,145.79a6.48,6.48,0,0,1-1.9.25c-1.56,0-2.82-.42-2.82-.94s1.26-.94,2.82-.94a7.24,7.24,0,0,1,1.65.18c0,.25.09.5.13.76S322,145.56,322,145.79Z" transform="translate(-87.41 -18.32)"/><path class="cls-3" d="M315.55,150a2.71,2.71,0,0,0-2.16.43,4,4,0,0,0-3.39-1.31c-.69.08-1.5.37-1.62,1.16s.57,1.49,1.09,2a6.33,6.33,0,0,0,3.87,1.62c1.42.07,3.32-.42,3.5-2.09A1.67,1.67,0,0,0,315.55,150Z" transform="translate(-87.41 -18.32)"/><path class="cls-16" d="M325.57,134.07a10.76,10.76,0,0,0-6.11-5.28,13.34,13.34,0,0,0-6.64.05c-2.19.45-4.33,1.13-6.56,1.41a10.06,10.06,0,0,1-6.47-1,14.42,14.42,0,0,1,.32,10.82,3.7,3.7,0,0,1-1,1.52,5.47,5.47,0,0,0-6.94-1.31,29,29,0,0,1-3.3-11.56,8.75,8.75,0,0,1,.25-3.11,3.77,3.77,0,0,1,1.92-2.38,2.37,2.37,0,0,1,2.82.49,16.32,16.32,0,0,1,10.51-12.87,15.87,15.87,0,0,1,16.14,3.69,18.68,18.68,0,0,1,4.75,9.16A32.81,32.81,0,0,1,325.57,134.07Z" transform="translate(-87.41 -18.32)"/><polygon class="cls-31" points="199.56 428.57 197.35 442.38 189.87 442.38 188.25 427.79 199.56 428.57"/><path class="cls-2" d="M270.49,467.75a15,15,0,0,1,1.72-9c.69-1.26,1.9-2.56,3.31-2.27,1.06.23,1.7,1.27,2.53,2a4.62,4.62,0,0,0,5.54.18c.74-.54,1.36-1.34,2.26-1.53a3,3,0,0,1,2.83,1.48,21.69,21.69,0,0,0,1.91,2.78,5.72,5.72,0,0,0,4.12,1.43,22.12,22.12,0,0,0,4.42-.7c3.17-.66,6.52-1,9.58.08s5.75,3.68,6,6.91a52.45,52.45,0,0,1-27.3.1A26.65,26.65,0,0,1,270.49,467.75Z" transform="translate(-87.41 -18.32)"/><path class="cls-3" d="M267.5,470.59c5.54,3.3,15,2.82,20.95.55,8.38,2.88,20.53,3.34,28.31-.24l-2.16-4.14a42.63,42.63,0,0,1-26.15-.44,27,27,0,0,1-18.67,0Z" transform="translate(-87.41 -18.32)"/><path class="cls-4" d="M287.65,453.8c-1.21,1.1-2.77,2.86-2.07,4.34a8.65,8.65,0,0,0,11.06,4.43A31.43,31.43,0,0,0,287.65,453.8Z" transform="translate(-87.41 -18.32)"/><path class="cls-5" d="M278.84,467.46a8.35,8.35,0,0,0-7.19-5.59" transform="translate(-87.41 -18.32)"/><path class="cls-6" d="M291.12,456a9.74,9.74,0,0,0-4.66,3.46" transform="translate(-87.41 -18.32)"/><path class="cls-6" d="M294.4,459.21a9.19,9.19,0,0,0-4.64,3" transform="translate(-87.41 -18.32)"/><polygon class="cls-31" points="308.15 415.46 311.19 429.12 304.24 431.88 297.35 418.91 308.15 415.46"/><path class="cls-2" d="M387.93,459.25a15.15,15.15,0,0,1-1.73-9c.17-1.43.82-3.09,2.24-3.33,1.06-.19,2.05.54,3.08.89a4.61,4.61,0,0,0,5.21-1.88c.49-.78.77-1.74,1.54-2.25a3,3,0,0,1,3.18.33,21.3,21.3,0,0,0,2.79,1.88,5.77,5.77,0,0,0,4.37-.19,23.07,23.07,0,0,0,3.85-2.28c2.69-1.78,5.7-3.3,8.93-3.46s6.7,1.3,8.13,4.2a52.38,52.38,0,0,1-25.34,10.17A26.65,26.65,0,0,1,387.93,459.25Z" transform="translate(-87.41 -18.32)"/><path class="cls-3" d="M386.2,463c6.37,1,14.95-2.9,19.68-7.21,8.85-.42,20.31-4.47,26.23-10.67l-3.54-3.05a42.7,42.7,0,0,1-24.47,9.24,27.08,27.08,0,0,1-17.35,6.9Z" transform="translate(-87.41 -18.32)"/><path class="cls-4" d="M398.74,440c-.72,1.46-1.52,3.68-.33,4.79a8.65,8.65,0,0,0,11.92,0A31.27,31.27,0,0,0,398.74,440Z" transform="translate(-87.41 -18.32)"/><path class="cls-5" d="M395.59,455.9a8.37,8.37,0,0,0-8.74-2.55" transform="translate(-87.41 -18.32)"/><path class="cls-6" d="M402.79,440.75a9.76,9.76,0,0,0-3.06,4.93" transform="translate(-87.41 -18.32)"/><path class="cls-6" d="M407,442.49A9.14,9.14,0,0,0,403.8,447" transform="translate(-87.41 -18.32)"/><path class="cls-16" d="M399.78,433.81,380.86,441c-11.72-23.18-35.17-89-33.3-106.59-9.08-11.55-23.85-34.89-33.22-52.92-4.66-9-8-16.62-8.62-20.87L304.37,238l-.09-1.5L337.34,234c7.44,14,26.22,60.55,32.87,82.9h0c.82,2.74,1.46,5.12,1.86,7,.48,2.23,1.25,5.45,2.23,9.42C381.06,360.48,397.92,422.19,399.78,433.81Z" transform="translate(-87.41 -18.32)"/><path class="cls-16" d="M307.24,330.57c-.5,2.76-1,5.1-1.33,6.91-.3,1.41-.81,5-1.5,10.08-3,22.25-9.24,73.56-14.65,100.7H271.1c-2.67-22.33.26-93.31,7.08-110.78-4.64-22-3.09-85.9,4.56-100.52l33.94,1.62C317.58,265.77,311,310,307.24,330.57Z" transform="translate(-87.41 -18.32)"/><path class="cls-34" d="M313.81,285.44q3-22.71,3.72-45.65" transform="translate(-87.41 -18.32)"/><path class="cls-34" d="M322.9,239.78A144.82,144.82,0,0,1,321.52,260a48.55,48.55,0,0,1-11.41,8.3" transform="translate(-87.41 -18.32)"/><path class="cls-34" d="M294.68,241.56A23.74,23.74,0,0,1,280,258.38" transform="translate(-87.41 -18.32)"/><path class="cls-34" d="M333.48,236.94a21.51,21.51,0,0,0,9.23,12.25" transform="translate(-87.41 -18.32)"/><path class="cls-35" d="M273.58,444.92c-2.78-33.61,1.35-70.18,6-99.08l4.9-3.23-3.86-4.34,4.75-3.11-4.75-4.75A287.8,287.8,0,0,1,282.46,260" transform="translate(-87.41 -18.32)"/><path class="cls-35" d="M382.44,437.9c-11.15-26-25.89-72.34-31.83-97.55L355.8,335l-5.34-1,3.12-5-6.23-1.64c-10.55-15.26-20.67-31-29.84-47.15" transform="translate(-87.41 -18.32)"/><path class="cls-31" d="M374.3,333.32a38.84,38.84,0,0,1-15.67-1.66,32.34,32.34,0,0,1,11.58-14.79c.82,2.74,1.46,5.12,1.86,7C372.55,326.13,373.32,329.35,374.3,333.32Z" transform="translate(-87.41 -18.32)"/><path class="cls-32" d="M372.31,324.47a23.22,23.22,0,0,1-9.89,4.91" transform="translate(-87.41 -18.32)"/><path class="cls-31" d="M307.24,330.57c-.5,2.76-1,5.1-1.33,6.91-.3,1.41-.81,5-1.5,10.08a43.23,43.23,0,0,1-15.76-9.1A42.34,42.34,0,0,1,307.24,330.57Z" transform="translate(-87.41 -18.32)"/><path class="cls-32" d="M305.88,338.84a39,39,0,0,1-12.84,0" transform="translate(-87.41 -18.32)"/><path class="cls-31" d="M395.2,139.61c2.67-3.85,9.75.33,9.1,3.35S388,180.74,380.92,186.39c-4,3.16-7.75-5.33-7.81-11C373,163.06,386.94,151.51,395.2,139.61Z" transform="translate(-87.41 -18.32)"/><path class="cls-31" d="M373.11,174.75c-9.33-3.19-35.35-5.54-42.1-4.88-3.89.39-3.71,19.21,3.72,20,11.11,1.15,35.44,1.33,45.25-2.93C385.22,184.65,378.64,176.63,373.11,174.75Z" transform="translate(-87.41 -18.32)"/><path class="cls-32" d="M374.31,181.54a10,10,0,0,1-1.09-6.93,9.54,9.54,0,0,0,2.49,4.24" transform="translate(-87.41 -18.32)"/><path class="cls-31" d="M396.19,139.2l7.29,4.92a174.21,174.21,0,0,0,11.9-12.85c.56-.68,1.11-1.36,1.6-2.09.27-.4.51-.92.25-1.31a.84.84,0,0,0-.94-.27,2.33,2.33,0,0,0-.88.55l-5.07,4.24c1.92-2.43,3.84-4.89,5.76-7.32a2.43,2.43,0,0,0,.59-1.09.86.86,0,0,0-.57-1,1.26,1.26,0,0,0-1,.47c-2.36,2.23-4.61,4.59-6.74,7.05,1.85-2.87,3.69-5.81,5.54-8.68a2.21,2.21,0,0,0,.36-.76.76.76,0,0,0-.25-.76.77.77,0,0,0-.75,0,2.39,2.39,0,0,0-.6.5q-3.6,3.87-6.89,8c1.64-2.27,3.16-4.71,4.58-7.11a2.58,2.58,0,0,0,.34-.8.7.7,0,0,0-1.08-.75,2.4,2.4,0,0,0-.6.55C404.15,126.44,399.35,132.26,396.19,139.2Z" transform="translate(-87.41 -18.32)"/><path class="cls-13" d="M409.28,136.66H397a1.25,1.25,0,0,1-1.27-1.44l3.06-25.67a1.68,1.68,0,0,1,1.62-1.44h12.31a1.25,1.25,0,0,1,1.27,1.44l-3.06,25.67A1.68,1.68,0,0,1,409.28,136.66Z" transform="translate(-87.41 -18.32)"/><path class="cls-14" d="M412.52,109.56l-3.07,25.65a1.11,1.11,0,0,1-1.07,1H396.06a.85.85,0,0,1-.85-1l3.06-25.65a1.12,1.12,0,0,1,1.08-1h12.32a.83.83,0,0,1,.85.78A1.2,1.2,0,0,1,412.52,109.56Z" transform="translate(-87.41 -18.32)"/><path class="cls-15" d="M412.52,109.56l-1.18,9.83q-6.94,8.44-14,16.79h-1.23a.85.85,0,0,1-.85-1l1.47-12.27q7.76-7,15.84-13.57A1.2,1.2,0,0,1,412.52,109.56Z" transform="translate(-87.41 -18.32)"/><path class="cls-16" d="M408.32,136.66H396a1.26,1.26,0,0,1-1.28-1.44l3.07-25.67a1.67,1.67,0,0,1,1.61-1.44h12.32a1.26,1.26,0,0,1,1.27,1.44l-3.06,25.67A1.69,1.69,0,0,1,408.32,136.66Zm-9-27.59a.56.56,0,0,0-.54.48l-3.06,25.67a.41.41,0,0,0,.42.48h12.31a.56.56,0,0,0,.54-.48L412,109.55a.42.42,0,0,0-.43-.48Z" transform="translate(-87.41 -18.32)"/><path class="cls-16" d="M408.05,110.6H402.5a1,1,0,0,1-1-1.11l.11-.9h7.79l-.11.9A1.29,1.29,0,0,1,408.05,110.6Z" transform="translate(-87.41 -18.32)"/><path class="cls-31" d="M395.75,140.92a63.94,63.94,0,0,1-2.58-7.14,14,14,0,0,1,0-5.55,17.87,17.87,0,0,1,4.61-4.74,1.78,1.78,0,0,1,.57-.32.6.6,0,0,1,.6.17.87.87,0,0,1,.06.71,11.62,11.62,0,0,1-2.51,5c2.64,2,5.93,6.16,4.93,11C399.78,140.92,397.77,140.55,395.75,140.92Z" transform="translate(-87.41 -18.32)"/><polygon class="cls-3" points="303.63 90.51 292.9 82.78 294.92 80.56 303.63 90.51 303.63 90.51"/><polygon class="cls-3" points="307.11 88.12 303.38 80.07 306.27 79.29 307.11 88.12 307.11 88.12"/><polygon class="cls-3" points="301.16 93.49 292.35 93.97 292.69 90.99 301.16 93.49 301.16 93.49"/><path class="cls-31" d="M272,178.63c-8.88,5.51-26.58,30.9-26.58,38.4,0,5,6.21,4.43,10.79,1.13,4.88-3.52,19.13-17.55,23.65-22.17C283.43,192.27,276.32,175.92,272,178.63Z" transform="translate(-87.41 -18.32)"/><path class="cls-31" d="M245.88,219.13c3.47,7.27,32.26,17.27,33.93,17.37s4.16-6.54,2-7.88c-8.63-5.4-15.76-15.11-20.47-15.59S243.79,214.73,245.88,219.13Z" transform="translate(-87.41 -18.32)"/><path class="cls-32" d="M252.23,214.37a19.79,19.79,0,0,1,10.29-1.31,8.51,8.51,0,0,0-4.32-1.76" transform="translate(-87.41 -18.32)"/><path class="cls-2" d="M337.34,234c-9.63,4.81-41.81,7.82-54.6,3,.15-5,1.05-18.79,3.31-27.37-1.5-2.41-5-12-7.07-18.65-8.72,1.05-9.93-10.22-6.17-13.53s12.94-6.77,20.35-9.13a12.71,12.71,0,0,0,10.06,4.79c7,0,9.64-4.79,9.64-4.79,5.59,0,14.48.48,19.32,1.68,5.29,1.32,4.86,12,.79,15.87C334.63,193.05,339.14,221,337.34,234Z" transform="translate(-87.41 -18.32)"/><path class="cls-2" d="M317.71,168.38c6.77-.57,27.62-.41,33,0,2.53,5.79-.11,21.15-1.31,25.1-9.55-.66-18.77-1.54-18.77-1.54Z" transform="translate(-87.41 -18.32)"/><path class="cls-2" d="M274.59,176.08c-5.19,2.81-17.59,13.34-19.89,16,2.63,5.38,12.62,14.6,16.68,15.8,3.95-4,10.2-10.31,11.3-12.61V181.41Z" transform="translate(-87.41 -18.32)"/><path class="cls-5" d="M278.18,190a43.31,43.31,0,0,1,3.25,8.21,12,12,0,0,0-3.19-3.61" transform="translate(-87.41 -18.32)"/><path class="cls-5" d="M332.23,184.14a65.25,65.25,0,0,1,2.2,9.66,19.41,19.41,0,0,0,1-5.39" transform="translate(-87.41 -18.32)"/><path class="cls-5" d="M316.68,169.21a16.31,16.31,0,0,1-27,1.34" transform="translate(-87.41 -18.32)"/><path class="cls-5" d="M321.69,187.86a67.57,67.57,0,0,1-8.61,20.35,38.28,38.28,0,0,1-16.56,14.31" transform="translate(-87.41 -18.32)"/><path class="cls-5" d="M322.91,211.15a44.86,44.86,0,0,1-11,19.81" transform="translate(-87.41 -18.32)"/><path class="cls-31" d="M287.68,230.24c-.94-.66-1.9-1.29-2.86-1.92a3.88,3.88,0,0,0-2.53-.9,2.15,2.15,0,0,0-1.82,3.17,2,2,0,0,0-.7,2.87,1.63,1.63,0,0,0-.87,1.13,2.22,2.22,0,0,0,.49,1.72,1.52,1.52,0,0,0-.66.55,1.72,1.72,0,0,0,.11,1.86,12.42,12.42,0,0,0,3.71,3.45,2.61,2.61,0,0,0,1.94.59.81.81,0,0,0,.51-1.28,13.85,13.85,0,0,0-1.6-1.94c-.26-.29-.54-.57-.81-.85l1.13.5c.45.18.9.37,1.36.54a1.67,1.67,0,0,0,1.26,0c1-.46.4-1.46-.13-2a17.67,17.67,0,0,0-2.14-1.69l-.71-.53.14.06c.46.18.93.34,1.41.49a4.16,4.16,0,0,0,1.27.26,1.05,1.05,0,0,0,.9-1.71,6.44,6.44,0,0,0-1-1l-1.14-1c-.31-.25-.64-.48-1-.73.34.16.68.31,1,.45a11,11,0,0,0,3,.94c.8.06,1.42-.41,1.33-1.13S288.37,230.73,287.68,230.24Z" transform="translate(-87.41 -18.32)"/><path class="cls-32" d="M281.1,227.72a2.49,2.49,0,0,0-.78,1.38,2.54,2.54,0,0,0,.22,1.58,1.87,1.87,0,0,0-1.21,1.25,1.78,1.78,0,0,0,.33,1.65,1.6,1.6,0,0,0-.81,1.22,1.7,1.7,0,0,0,.47,1.47" transform="translate(-87.41 -18.32)"/><path class="cls-36" d="M87.41,70H206.17A8.24,8.24,0,0,0,191,65.57,12.89,12.89,0,0,0,168.13,55.1a19.77,19.77,0,0,0-39.54-.37,14.11,14.11,0,0,0-25.67,11.35A8.25,8.25,0,0,0,87.41,70Z" transform="translate(-87.41 -18.32)"/><path class="cls-36" d="M823.41,53H942.17A8.24,8.24,0,0,0,927,48.57,12.89,12.89,0,0,0,904.13,38.1a19.77,19.77,0,0,0-39.54-.37,14.11,14.11,0,0,0-25.67,11.35A8.25,8.25,0,0,0,823.41,53Z" transform="translate(-87.41 -18.32)"/><path class="cls-36" d="M1267.41,70h118.76a8.24,8.24,0,0,0-15.2-4.43,12.89,12.89,0,0,0-22.84-10.47,19.77,19.77,0,0,0-39.54-.37,14.11,14.11,0,0,0-25.67,11.35A8.25,8.25,0,0,0,1267.41,70Z" transform="translate(-87.41 -18.32)"/><path class="cls-36" d="M1059.41,53h118.76a8.24,8.24,0,0,0-15.2-4.43,12.89,12.89,0,0,0-22.84-10.47,19.77,19.77,0,0,0-39.54-.37,14.11,14.11,0,0,0-25.67,11.35A8.25,8.25,0,0,0,1059.41,53Z" transform="translate(-87.41 -18.32)"/><path class="cls-36" d="M455.41,77H574.17A8.24,8.24,0,0,0,559,72.57,12.89,12.89,0,0,0,536.13,62.1a19.77,19.77,0,0,0-39.54-.37,14.11,14.11,0,0,0-25.67,11.35A8.25,8.25,0,0,0,455.41,77Z" transform="translate(-87.41 -18.32)"/></svg>